HIERARCHY
ROOT Root
{
  OFFSET 0.0 0.0 0.0
  CHANNELS 6 Xposition Yposition Zposition Zrotation Yrotation Xrotation
  JOINT Hips
  {
    OFFSET 0.0 100.0 0.0
    CHANNELS 6 Xposition Yposition Zposition Zrotation Yrotation Xrotation
    JOINT Spine
    {
      OFFSET -0.013727 5.003763 -0.053727
      CHANNELS 3 Zrotation Yrotation Xrotation
      JOINT Spine1
      {
        OFFSET -0.0 7.125301 -0.029825
        CHANNELS 3 Zrotation Yrotation Xrotation
        JOINT Spine2
        {
          OFFSET -1e-06 7.550063 -0.815971
          CHANNELS 3 Zrotation Yrotation Xrotation
          JOINT Neck
          {
            OFFSET -0.181677 26.311295 -0.553348
            CHANNELS 3 Zrotation Yrotation Xrotation
            JOINT Neck2
            {
              OFFSET -3e-06 7.709397 2.302585
              CHANNELS 3 Zrotation Yrotation Xrotation
              JOINT Head
              {
                OFFSET -5e-06 6.128916 1.953709
                CHANNELS 3 Zrotation Yrotation Xrotation
                JOINT HeadTop_End
                {
                  OFFSET 0.003598 16.065403 -1.835379
                  CHANNELS 3 Zrotation Yrotation Xrotation
                }
                JOINT Jaw
                {
                  OFFSET 0.002637 0.475592 3.094941
                  CHANNELS 3 Zrotation Yrotation Xrotation
                }
                JOINT LeftEye
                {
                  OFFSET 3.206381 5.380205 7.586883
                  CHANNELS 3 Zrotation Yrotation Xrotation
                }
                JOINT RightEye
                {
                  OFFSET -3.22244 5.361869 7.558234
                  CHANNELS 3 Zrotation Yrotation Xrotation
                }
              }
            }
          }
          JOINT LeftShoulder
          {
            OFFSET 1.621652 23.237164 5.113413
            CHANNELS 3 Zrotation Yrotation Xrotation
            JOINT LeftArm
            {
              OFFSET 14.919846 2e-06 -5.502326
              CHANNELS 3 Zrotation Yrotation Xrotation
              JOINT LeftForeArm
              {
                OFFSET 28.739307 0.0 -0.002588
                CHANNELS 3 Zrotation Yrotation Xrotation
                JOINT LeftHand
                {
                  OFFSET 27.093981 -1e-06 0.002609
                  CHANNELS 3 Zrotation Yrotation Xrotation
                  JOINT LeftHandThumb1
                  {
                    OFFSET 2.276482 -1.392045 3.191413
                    CHANNELS 3 Zrotation Yrotation Xrotation
                    JOINT LeftHandThumb2
                    {
                      OFFSET 4.012836 -1.828127 1.641654
                      CHANNELS 3 Zrotation Yrotation Xrotation
                      JOINT LeftHandThumb3
                      {
                        OFFSET 2.798515 0.0 -3e-06
                        CHANNELS 3 Zrotation Yrotation Xrotation
                        JOINT LeftHandThumb4
                        {
                          OFFSET 3.180793 -4e-06 4e-06
                          CHANNELS 3 Zrotation Yrotation Xrotation
                        }
                      }
                    }
                  }
                  JOINT LeftHandIndex1
                  {
                    OFFSET 3.247555 -0.531998 2.296169
                    CHANNELS 3 Zrotation Yrotation Xrotation
                    JOINT LeftHandIndex2
                    {
                      OFFSET 6.364578 0.01206 0.1786
                      CHANNELS 3 Zrotation Yrotation Xrotation
                      JOINT LeftHandIndex3
                      {
                        OFFSET 3.662364 0.0 0.0
                        CHANNELS 3 Zrotation Yrotation Xrotation
                        JOINT LeftHandIndex4
                        {
                          OFFSET 2.329242 4e-06 4e-06
                          CHANNELS 3 Zrotation Yrotation Xrotation
                          JOINT LeftHandIndex4_end
                          {
                            OFFSET 2.759615 -0.180537 -0.113024
                            CHANNELS 3 Zrotation Yrotation Xrotation
                          }
                        }
                      }
                    }
                  }
                  JOINT LeftHandMiddle1
                  {
                    OFFSET 3.163495 0.240981 1.000332
                    CHANNELS 3 Zrotation Yrotation Xrotation
                    JOINT LeftHandMiddle2
                    {
                      OFFSET 6.19078 -0.259278 -1.002548
                      CHANNELS 3 Zrotation Yrotation Xrotation
                      JOINT LeftHandMiddle3
                      {
                        OFFSET 4.35652 -4e-06 -1e-06
                        CHANNELS 3 Zrotation Yrotation Xrotation
                        JOINT LeftHandMiddle4
                        {
                          OFFSET 2.996877 -8e-06 0.0
                          CHANNELS 3 Zrotation Yrotation Xrotation
                          JOINT LeftHandMiddle4_end
                          {
                            OFFSET 2.304287 -0.294569 -0.031741
                            CHANNELS 3 Zrotation Yrotation Xrotation
                          }
                        }
                      }
                    }
                  }
                  JOINT LeftHandRing1
                  {
                    OFFSET 2.882643 -0.053652 -0.322543
                    CHANNELS 3 Zrotation Yrotation Xrotation
                    JOINT LeftHandRing2
                    {
                      OFFSET 5.854541 -0.486202 -1.373841
                      CHANNELS 3 Zrotation Yrotation Xrotation
                      JOINT LeftHandRing3
                      {
                        OFFSET 4.350578 0.0 3e-06
                        CHANNELS 3 Zrotation Yrotation Xrotation
                        JOINT LeftHandRing4
                        {
                          OFFSET 2.651321 7e-06 2e-06
                          CHANNELS 3 Zrotation Yrotation Xrotation
                          JOINT LeftHandRing4_end
                          {
                            OFFSET 1.936105 0.077687 -7.1e-05
                            CHANNELS 3 Zrotation Yrotation Xrotation
                          }
                        }
                      }
                    }
                  }
                  JOINT LeftHandPinky1
                  {
                    OFFSET 2.8655 -0.310005 -1.600378
                    CHANNELS 3 Zrotation Yrotation Xrotation
                    JOINT LeftHandPinky2
                    {
                      OFFSET 5.087849 -1.331141 -1.77123
                      CHANNELS 3 Zrotation Yrotation Xrotation
                      JOINT LeftHandPinky3
                      {
                        OFFSET 3.070974 4e-06 0.0
                        CHANNELS 3 Zrotation Yrotation Xrotation
                        JOINT LeftHandPinky4
                        {
                          OFFSET 1.549672 0.0 1e-06
                          CHANNELS 3 Zrotation Yrotation Xrotation
                          JOINT LeftHandPinky4_end
                          {
                            OFFSET 1.944893 -0.157802 0.057219
                            CHANNELS 3 Zrotation Yrotation Xrotation
                          }
                        }
                      }
                    }
                  }
                }
              }
            }
          }
          JOINT RightShoulder
          {
            OFFSET -1.380118 23.180309 5.214158
            CHANNELS 3 Zrotation Yrotation Xrotation
            JOINT RightArm
            {
              OFFSET -15.037196 1.2e-05 -5.545604
              CHANNELS 3 Zrotation Yrotation Xrotation
              JOINT RightForeArm
              {
                OFFSET -28.736639 2e-06 -0.002597
                CHANNELS 3 Zrotation Yrotation Xrotation
                JOINT RightHand
                {
                  OFFSET -27.133619 -0.0 0.002613
                  CHANNELS 3 Zrotation Yrotation Xrotation
                  JOINT RightHandThumb1
                  {
                    OFFSET -2.274032 -1.383988 3.163127
                    CHANNELS 3 Zrotation Yrotation Xrotation
                    JOINT RightHandThumb2
                    {
                      OFFSET -4.011429 -1.827466 1.640914
                      CHANNELS 3 Zrotation Yrotation Xrotation
                      JOINT RightHandThumb3
                      {
                        OFFSET -2.794935 -4e-06 -3e-06
                        CHANNELS 3 Zrotation Yrotation Xrotation
                        JOINT RightHandThumb4
                        {
                          OFFSET -3.183852 4e-06 1e-06
                          CHANNELS 3 Zrotation Yrotation Xrotation
                        }
                      }
                    }
                  }
                  JOINT RightHandIndex1
                  {
                    OFFSET -3.253266 -0.520057 2.282866
                    CHANNELS 3 Zrotation Yrotation Xrotation
                    JOINT RightHandIndex2
                    {
                      OFFSET -6.341917 0.012471 0.178266
                      CHANNELS 3 Zrotation Yrotation Xrotation
                      JOINT RightHandIndex3
                      {
                        OFFSET -3.654871 -8e-06 -0.0
                        CHANNELS 3 Zrotation Yrotation Xrotation
                        JOINT RightHandIndex4
                        {
                          OFFSET -2.327586 0.0 1e-06
                          CHANNELS 3 Zrotation Yrotation Xrotation
                          JOINT RightHandIndex4_end
                          {
                            OFFSET -2.76179 -0.180656 -0.113078
                            CHANNELS 3 Zrotation Yrotation Xrotation
                          }
                        }
                      }
                    }
                  }
                  JOINT RightHandMiddle1
                  {
                    OFFSET -3.168106 0.246593 1.00103
                    CHANNELS 3 Zrotation Yrotation Xrotation
                    JOINT RightHandMiddle2
                    {
                      OFFSET -6.180828 -0.258836 -1.000895
                      CHANNELS 3 Zrotation Yrotation Xrotation
                      JOINT RightHandMiddle3
                      {
                        OFFSET -4.348901 0.0 -0.0
                        CHANNELS 3 Zrotation Yrotation Xrotation
                        JOINT RightHandMiddle4
                        {
                          OFFSET -3.00024 -4e-06 -2e-06
                          CHANNELS 3 Zrotation Yrotation Xrotation
                          JOINT RightHandMiddle4_end
                          {
                            OFFSET -2.30252 -0.29437 -0.031706
                            CHANNELS 3 Zrotation Yrotation Xrotation
                          }
                        }
                      }
                    }
                  }
                  JOINT RightHandRing1
                  {
                    OFFSET -2.88569 -0.067952 -0.308858
                    CHANNELS 3 Zrotation Yrotation Xrotation
                    JOINT RightHandRing2
                    {
                      OFFSET -5.854198 -0.48613 -1.373731
                      CHANNELS 3 Zrotation Yrotation Xrotation
                      JOINT RightHandRing3
                      {
                        OFFSET -4.33881 -4e-06 -0.0
                        CHANNELS 3 Zrotation Yrotation Xrotation
                        JOINT RightHandRing4
                        {
                          OFFSET -2.654903 -4e-06 4e-06
                          CHANNELS 3 Zrotation Yrotation Xrotation
                          JOINT RightHandRing4_end
                          {
                            OFFSET -1.933568 0.077527 -5.2e-05
                            CHANNELS 3 Zrotation Yrotation Xrotation
                          }
                        }
                      }
                    }
                  }
                  JOINT RightHandPinky1
                  {
                    OFFSET -2.866425 -0.342796 -1.584145
                    CHANNELS 3 Zrotation Yrotation Xrotation
                    JOINT RightHandPinky2
                    {
                      OFFSET -5.091371 -1.332055 -1.772385
                      CHANNELS 3 Zrotation Yrotation Xrotation
                      JOINT RightHandPinky3
                      {
                        OFFSET -3.062664 -4e-06 1e-06
                        CHANNELS 3 Zrotation Yrotation Xrotation
                        JOINT RightHandPinky4
                        {
                          OFFSET -1.546529 4e-06 -2e-06
                          CHANNELS 3 Zrotation Yrotation Xrotation
                          JOINT RightHandPinky4_end
                          {
                            OFFSET -1.945119 -0.157718 0.057211
                            CHANNELS 3 Zrotation Yrotation Xrotation
                          }
                        }
                      }
                    }
                  }
                }
              }
            }
          }
        }
      }
    }
    JOINT LeftUpLeg
    {
      OFFSET 10.043214 -8.434526 2.595655
      CHANNELS 3 Zrotation Yrotation Xrotation
      JOINT LeftLeg
      {
        OFFSET -1e-06 -43.221752 -0.802913
        CHANNELS 3 Zrotation Yrotation Xrotation
        JOINT LeftFoot
        {
          OFFSET 1e-06 -42.155094 -3.481523
          CHANNELS 3 Zrotation Yrotation Xrotation
          JOINT LeftToeBase
          {
            OFFSET 0.0 -5.059472 13.231529
            CHANNELS 3 Zrotation Yrotation Xrotation
            JOINT LeftToe_End
            {
              OFFSET -0.009607 -1.647619 6.513017
              CHANNELS 3 Zrotation Yrotation Xrotation
            }
          }
        }
      }
    }
    JOINT RightUpLeg
    {
      OFFSET -10.047278 -8.29526 2.620317
      CHANNELS 3 Zrotation Yrotation Xrotation
      JOINT RightLeg
      {
        OFFSET 1e-06 -43.362206 -0.805556
        CHANNELS 3 Zrotation Yrotation Xrotation
        JOINT RightFoot
        {
          OFFSET 2e-06 -42.117393 -3.478398
          CHANNELS 3 Zrotation Yrotation Xrotation
          JOINT RightToeBase
          {
            OFFSET -0.0 -5.079609 13.284196
            CHANNELS 3 Zrotation Yrotation Xrotation
            JOINT RightToe_End
            {
              OFFSET 0.009532 -1.634378 6.460591
              CHANNELS 3 Zrotation Yrotation Xrotation
            }
          }
        }
      }
    }
  }
}
MOTION
Frames: 4
Frame Time: 0.03333333333333333
0.0 0.0 0.0 0.0 -0.0 0.0 -29.288309 98.622124 99.966423 2.796765 -8.345927 4.215488 1.421564 -0.049011 -5.507215 0.131094 -0.099321 -6.837376 2.24984 -3.583099 5.248861 -21.297207 22.096775 25.314363 -6.282324 -15.273656 -1.968663 -19.406019 -12.833442 0.921274 7.6e-05 -2.2e-05 6e-06 -0.075507 0.087129 -0.146311 0.541603 -3.413851 -10.472256 -0.734797 3.57436 -10.024247 -20.90073 -2.499841 13.366599 -49.936214 -18.379477 -14.441831 -178.501923 -46.274353 178.478531 -32.746719 0.133274 5.634259 -5.88211 9.861291 0.702589 -10.936877 -0.360573 7.156209 -0.0 8.774828 -0.0 -16.704283 17.927126 5.607774 -1.844034 2.498507 -2.507278 -10.163608 4.678948 4.62111 -20.976038 -1e-06 3e-06 -21.226303 2.4517 -3.594003 1e-06 -7e-06 -0.0 -1.362683 2.240799 -0.746324 -21.334925 0.58491 3.008324 -13.821221 -2e-06 3e-06 -23.887184 -0.249079 -0.839486 -60.143845 3.015723 -1.365204 -0.294027 1.679688 0.833256 -14.218217 0.093216 1.300581 -34.21207 -0.287563 0.967171 -20.033226 0.964537 1.212843 1e-06 0.0 -1e-06 -3.440391 0.788232 0.501655 -15.928196 -3.16731 2.99971 -6.33883 -1e-06 1e-06 -18.123459 3.648185 -4.905674 -3e-06 -0.0 -2e-06 20.951742 4.207587 15.004596 35.334633 -3.655949 -1.333079 174.218719 82.162804 174.490707 26.922369 -15.242209 8.249157 2.243543 -5.255037 -3.18016 14.282896 -0.826595 6.952503 -2e-06 -12.690605 -0.0 15.0705 -18.117256 2.894523 1.665669 -1.955923 -2.878299 4.727798 -4.170588 4.993924 11.020531 2e-06 -2e-06 12.109057 -3.735716 -2.866788 0.0 1e-06 -2e-06 1.291986 -1.92855 -1.498092 14.800132 0.567465 3.865608 14.242578 -1.341736 -6.660663 19.631973 0.143924 -0.648248 49.70657 -1.232314 -6.209068 0.353031 -1.511152 -0.031941 20.222797 3.684311 2.316626 18.787279 4e-06 -4e-06 10.751631 -0.479868 1.397904 0.0 -1e-06 -0.0 3.273808 0.305947 -0.58011 21.48682 11.830378 2.266131 8.16293 1e-06 -2e-06 18.399092 -3.798986 -4.940581 3e-06 -0.0 -1e-06 10.463931 -7.939563 -13.564402 0.151179 -0.627575 44.563179 -32.948601 -19.696463 12.036638 1.563037 -1.883689 -3.058462 -0.0 0.0 3e-06 -10.512483 2.360691 -6.222592 -0.216921 0.513492 15.542434 8.207155 10.40796 -13.940976 -1.498896 1.066145 0.358321 0.0 -0.0 -1e-06 
0.0 0.0 0.0 0.0 -0.0 0.0 -29.553562 98.463837 101.840126 3.766465 -6.714578 3.946353 1.485086 0.141267 -4.763807 0.080011 0.550663 -6.55667 1.653647 -2.809946 5.733386 -22.225243 22.558388 25.241859 -6.35069 -16.111366 -1.857631 -19.248056 -14.240032 -0.584489 7.8e-05 -2.2e-05 5e-06 -0.072189 0.088784 -0.146278 0.505678 -3.414432 -10.494041 -0.694915 3.580581 -10.009612 -20.699881 -1.341338 13.199391 -53.300236 -17.833456 -12.88274 -178.60759 -45.396915 178.561508 -33.198277 3.073522 4.47878 -5.882109 9.861286 0.70259 -10.936874 -0.360575 7.156208 -0.0 8.774826 -2e-06 -16.591055 18.057116 5.724585 -1.844032 2.498504 -2.507277 -10.163603 4.678945 4.621109 -20.97603 -1e-06 3e-06 -21.226294 2.451701 -3.594002 0.0 -5e-06 1e-06 -1.362682 2.240798 -0.746324 -21.334917 0.584912 3.008326 -13.821218 -1e-06 3e-06 -23.887178 -0.249076 -0.839483 -60.668461 3.07312 -1.32225 -0.294025 1.679687 0.833255 -14.218212 0.093216 1.300581 -34.212055 -0.287558 0.967172 -20.033218 0.964539 1.212844 1e-06 -1e-06 -1e-06 -3.44039 0.788234 0.501657 -15.928189 -3.167307 2.999709 -6.338828 1e-06 2e-06 -18.123451 3.648185 -4.90567 -3e-06 -0.0 -2e-06 20.973608 5.395219 15.406021 37.861103 -2.52464 -3.001673 170.149567 85.262321 170.253006 25.052446 -17.378067 8.945485 2.243541 -5.255035 -3.180157 14.28289 -0.826597 6.9525 0.0 -12.690603 2e-06 15.263517 -18.000921 2.831847 1.665666 -1.955921 -2.878298 4.727798 -4.170588 4.993924 11.020524 3e-06 -1e-06 12.109051 -3.735714 -2.866783 0.0 0.0 -1e-06 1.291985 -1.928549 -1.49809 14.800125 0.567467 3.865607 14.242568 -1.341736 -6.660658 19.631962 0.143926 -0.648246 49.93327 -1.170765 -6.179871 0.353029 -1.51115 -0.03194 20.222786 3.684307 2.316628 18.78727 3e-06 -2e-06 10.751627 -0.479868 1.397905 1e-06 -1e-06 0.0 3.273805 0.305947 -0.580111 21.486809 11.830369 2.266129 8.162928 1e-06 0.0 18.39908 -3.798985 -4.940575 3e-06 1e-06 -1e-06 10.282726 -8.368292 -19.097679 0.095586 -0.680077 45.977402 -28.704611 -17.864071 6.917573 1.683323 -1.952874 -3.04658 -0.0 1e-06 2e-06 -11.35499 1.065255 -3.942294 -0.202788 0.565382 14.784892 8.075427 10.649202 -15.156834 -1.49732 1.032842 0.608627 -0.0 -0.0 -1e-06 
0.0 0.0 0.0 0.0 -0.0 0.0 -29.719978 98.257515 103.787079 4.671006 -5.674168 3.955813 1.570085 0.360806 -4.114079 0.012347 1.171128 -6.301285 1.202236 -1.958316 6.182415 -22.947216 22.778692 25.240284 -6.243087 -16.680685 -1.798325 -19.238113 -15.246026 -1.278902 7.6e-05 -2.3e-05 4e-06 -0.051102 0.088655 -0.134533 0.49988 -3.418927 -10.484975 -0.649119 3.587927 -9.981238 -20.645275 -0.153511 12.926366 -55.578243 -16.645187 -11.332458 -179.067261 -44.727127 178.851898 -33.889851 5.515635 4.03992 -5.882109 9.861287 0.702589 -10.936875 -0.360577 7.156209 0.0 8.77483 -2e-06 -16.448406 18.105606 5.829583 -1.844032 2.498507 -2.507281 -10.163605 4.678946 4.621109 -20.976034 -3e-06 -0.0 -21.226299 2.451697 -3.594005 -1e-06 -6e-06 -1e-06 -1.362683 2.240799 -0.746324 -21.334927 0.58491 3.008324 -13.82122 -0.0 -1e-06 -23.887182 -0.24908 -0.839486 -61.056805 3.117619 -1.257998 -0.294025 1.679685 0.833257 -14.218213 0.093216 1.300579 -34.212063 -0.287563 0.967168 -20.033222 0.964538 1.212843 1e-06 -1e-06 1e-06 -3.440391 0.788232 0.501655 -15.928192 -3.16731 2.999709 -6.338828 1e-06 1e-06 -18.123453 3.648183 -4.905674 -4e-06 1e-06 -1e-06 20.82889 6.775172 15.684549 39.809013 -1.084588 -3.778733 163.084671 87.392487 162.958923 23.640598 -18.678478 9.366643 2.243545 -5.255041 -3.180159 14.282904 -0.826595 6.952507 -2e-06 -12.690618 1e-06 15.382368 -17.930462 2.77681 1.665668 -1.955924 -2.878303 4.727802 -4.170591 4.993927 11.020535 4e-06 -1e-06 12.109062 -3.735719 -2.866786 -0.0 0.0 -2e-06 1.291988 -1.928552 -1.498091 14.80014 0.567468 3.865609 14.242584 -1.341735 -6.660665 19.631985 0.14393 -0.648248 50.004646 -1.084898 -6.252069 0.353031 -1.511152 -0.03194 20.222805 3.684314 2.316631 18.787287 7e-06 -3e-06 10.751637 -0.479868 1.397907 0.0 -1e-06 -0.0 3.273809 0.305948 -0.580111 21.486832 11.830385 2.266132 8.162937 1e-06 0.0 18.399099 -3.798986 -4.94058 3e-06 3e-06 -1e-06 9.837904 -8.691187 -24.570093 0.017531 -0.714348 46.420982 -24.360733 -15.76532 2.891095 1.751156 -2.001388 -2.930515 -0.0 -0.0 3e-06 -12.344706 0.172617 -1.868371 -0.193437 0.626117 13.901223 8.140199 11.111518 -16.105467 -1.492215 0.994179 0.739862 0.0 0.0 -1e-06 
0.0 0.0 0.0 0.0 -0.0 0.0 -29.753471 97.968468 105.83651 5.413377 -5.2768 4.172626 1.696562 0.57338 -3.556856 -0.028453 1.798275 -6.054648 0.890419 -1.050024 6.589264 -23.61397 22.87005 25.214224 -6.121967 -17.058067 -1.7395 -19.368258 -15.962388 -1.529175 7.7e-05 -2.3e-05 5e-06 -0.040394 0.109046 -0.12211 0.482242 -3.40112 -10.421067 -0.614484 3.613127 -9.933724 -20.661587 1.055277 12.565928 -56.960026 -15.241713 -10.264508 -179.411377 -44.349735 179.094482 -34.394489 7.122053 4.818963 -5.88211 9.861288 0.702591 -10.936875 -0.360574 7.15621 -1e-06 8.77483 -2e-06 -16.312981 18.086031 5.894956 -1.844033 2.498506 -2.507278 -10.163602 4.678948 4.621113 -20.97603 2e-06 4e-06 -21.226292 2.451702 -3.594002 -0.0 -5e-06 -1e-06 -1.362683 2.240799 -0.746323 -21.334917 0.584915 3.008328 -13.821218 -0.0 2e-06 -23.887175 -0.249073 -0.839483 -61.117645 3.183809 -1.247781 -0.294025 1.679686 0.833257 -14.218212 0.093217 1.300582 -34.212055 -0.287557 0.96717 -20.033218 0.964541 1.212845 2e-06 0.0 -1e-06 -3.44039 0.788235 0.501656 -15.928192 -3.167308 2.999711 -6.338829 0.0 1e-06 -18.123453 3.648186 -4.905673 -4e-06 0.0 -2e-06 20.479012 8.340813 15.88792 41.27084 0.706865 -3.535698 152.474533 88.408485 152.310181 23.024458 -19.211052 9.594228 2.243544 -5.255043 -3.180159 14.282901 -0.826598 6.952507 -3e-06 -12.690618 4e-06 15.445536 -17.869955 2.701913 1.66567 -1.955924 -2.8783 4.727803 -4.170592 4.993929 11.020536 2e-06 -3e-06 12.109061 -3.735719 -2.866787 -0.0 0.0 -0.0 1.291988 -1.928553 -1.498092 14.800142 0.567469 3.865608 14.242584 -1.341738 -6.660664 19.631985 0.143928 -0.648246 49.957684 -1.066509 -6.331708 0.353029 -1.511151 -0.031939 20.222803 3.684313 2.316629 18.787289 4e-06 -2e-06 10.751637 -0.479867 1.397906 0.0 -1e-06 -0.0 3.273808 0.305947 -0.580112 21.48683 11.830386 2.266131 8.162935 1e-06 -1e-06 18.399099 -3.79899 -4.940581 3e-06 2e-06 -1e-06 9.362545 -8.919537 -29.650023 -0.105675 -0.820214 45.888176 -20.999788 -14.09575 0.337828 1.776849 -2.038962 -2.767049 -1e-06 1e-06 3e-06 -13.277515 -0.378422 -0.178189 -0.182144 0.698284 12.996918 8.410075 11.804159 -16.993664 -1.484165 0.969117 0.76573 0.0 -0.0 -1e-06 
